<?xml version="1.0" encoding="UTF-8" standalone="no"?>
<!-- Created with Inkscape (http://www.inkscape.org/) -->

<svg
   width="22.077021mm"
   height="24.812798mm"
   viewBox="0 0 22.077021 24.812798"
   version="1.1"
   id="svg1"
   xml:space="preserve"
   xmlns="http://www.w3.org/2000/svg"
   xmlns:svg="http://www.w3.org/2000/svg"><defs
     id="defs1" /><g
     id="layer1"
     transform="translate(-56.58952,-20.662917)"><g
       id="g30"
       transform="translate(-1.683798,-55.004069)"><path
         style="font-size:3.175px;font-family:'Franklin Gothic Heavy';-inkscape-font-specification:'Franklin Gothic Heavy, ';fill:#000000;fill-opacity:1;stroke:#ffffff;stroke-width:3;stroke-dasharray:none;stroke-opacity:1;paint-order:markers stroke fill"
         d="m 59.859234,92.530283 6.03064,-1.085198 q 0.7596,2.557898 3.90674,2.557898 2.44946,0 2.44946,-1.3022 0,-0.681998 -0.5736,-1.054198 -0.5581,-0.388 -2.01538,-0.682 -5.56555,-1.0697 -7.14685,-2.7906 -1.5813,-1.7208 -1.5813,-4.0462 0,-2.9921 2.26343,-4.9765 2.27893,-1.9843 6.54224,-1.9843 6.46472,0 8.54211,5.1934 l -5.37951,1.6278 q -0.8372,-2.1239 -3.39515,-2.1239 -2.1239,0 -2.1239,1.3178 0,0.589 0.4806,0.915 0.480601,0.326 1.86035,0.62 3.79822,0.806 5.39502,1.4263 1.59681,0.62 2.66651,2.1239 1.0697,1.4882 1.0697,3.5191 0,3.209098 -2.60449,5.208998 -2.604489,1.9844 -6.836789,1.9844 -7.73597,0 -9.549811,-6.4492 z"
         id="text6"
         aria-label="S" /></g></g></svg>
