<?xml version="1.0" encoding="UTF-8" standalone="no"?>
<!-- Created with Inkscape (http://www.inkscape.org/) -->

<svg
   width="46.631046mm"
   height="35.273815mm"
   viewBox="0 0 46.631046 35.273815"
   version="1.1"
   id="svg1"
   xml:space="preserve"
   xmlns="http://www.w3.org/2000/svg"
   xmlns:svg="http://www.w3.org/2000/svg"><defs
     id="defs1" /><g
     id="layer1"
     transform="translate(-74.402386,-195.49613)"><g
       id="g25-7-8"
       transform="matrix(10,0,0,10,-626.35196,-803.43524)"
       style="fill:#000000;fill-opacity:1;stroke:#ffffff;stroke-width:0.3;stroke-dasharray:none;stroke-opacity:1;paint-order:markers stroke fill"><path
         id="path2-23-3-2"
         style="display:inline;fill:#000000;fill-opacity:1;stroke:#ffffff;stroke-width:0.3;stroke-dasharray:none;stroke-opacity:1;paint-order:markers stroke fill"
         d="m 71.567429,100.29304 c 0.0075,-6e-5 0.01506,8e-5 0.02253,8.3e-4 -0.01521,-0.002 -0.0306,-3.6e-4 -0.04589,-5.7e-4 -0.01762,0.003 -0.03571,0.005 -0.05286,0.0104 0.01714,-0.005 0.03521,-0.007 0.05281,-0.0104 0.0078,1.1e-4 0.01561,-1.4e-4 0.02341,-2.1e-4 z m 0.02341,8.8e-4 c 0.04116,0.005 0.08573,0.0231 0.111208,0.057 0.0024,0.003 0.0034,0.007 0.0051,0.0111 l -0.351761,0.17901 c 5.9e-4,-0.002 0.0018,-0.004 0.0018,-0.006 -1.85e-4,-0.007 -0.0107,-0.0148 -0.01447,-0.0173 -0.0056,-0.004 -0.01086,-0.006 -0.01602,-0.009 0.009,-0.0153 0.01979,-0.0309 0.03519,-0.0499 0.01468,-0.0181 0.04899,-0.0499 0.04899,-0.0499 l 0.179886,-0.11539 c 1.7e-5,0 3.4e-5,-10e-6 5.1e-5,0 z" /><path
         id="path25-4-4"
         style="fill:#000000;fill-opacity:1;stroke:#ffffff;stroke-width:0.3;stroke-dasharray:none;stroke-opacity:1;paint-order:markers stroke fill"
         d="m 72.437026,100.04765 -1.900142,0.77762 1.026655,0.28696 0.05405,0.16408 c 0.0337,-0.0665 0.08634,-0.14145 0.168318,-0.21332 v -2.1e-4 c 0.163574,-0.14243 0.395164,-0.21053 0.687142,-0.21053 0.322002,0 0.57402,0.0986 0.743623,0.29094 l 0.0307,-0.31792 1.00211,-0.50281 z" /><g
         id="path24-9-5"
         style="opacity:1;fill:#000000;fill-opacity:1;stroke:#ffffff;stroke-width:0.314621;stroke-dasharray:none;stroke-opacity:1;paint-order:markers stroke fill"
         transform="matrix(0.99984092,0.01783632,-0.43247032,0.90164817,0,0)"><path
           style="baseline-shift:baseline;display:none;overflow:visible;fill:#000000;fill-opacity:1;stroke:#ffffff;stroke-width:0.314621;stroke-dasharray:none;stroke-opacity:1;paint-order:markers stroke fill;enable-background:accumulate;stop-color:#000000;stop-opacity:1"
           d="m 120.86879,109.87517 a 0.88910401,0.36802053 0 0 1 -0.88911,0.36802 0.88910401,0.36802053 0 0 1 -0.8891,-0.36802 0.88910401,0.36802053 0 0 1 0.8891,-0.36802 0.88910401,0.36802053 0 0 1 0.88911,0.36802 z"
           id="path30-5-5" /></g><path
         style="display:inline;fill:#b12c00;fill-opacity:1;stroke:#ffffff;stroke-width:0.3;stroke-dasharray:none;stroke-opacity:1;paint-order:markers stroke fill"
         id="path2-2-1-1"
         d="m 71.411925,100.40954 c 0,0 -0.03431,0.0318 -0.04899,0.0499 -0.04058,0.05 -0.04906,0.0767 -0.07689,0.13482 -0.0091,0.0268 -0.01983,0.0531 -0.02743,0.0803 -0.03136,0.11247 -0.03584,0.23606 -0.02777,0.35199 0.0021,0.03 0.0061,0.0599 0.0091,0.0898 0.01643,0.11972 0.03874,0.23853 0.0602,0.35743 0.01042,0.0577 0.02038,0.11554 0.03057,0.17332 0.02199,0.12565 0.05105,0.24987 0.07389,0.37535 0.01373,0.0843 0.02675,0.16873 0.03551,0.2537 0.0022,0.0593 0.0023,0.11905 -0.0069,0.17777 -0.0011,0.006 -0.0021,0.0118 -0.0032,0.0177 l -0.343173,0.16526 v 0 c 0.0017,-0.006 0.0034,-0.0124 0.0051,-0.0186 0.01746,-0.0587 0.03202,-0.11385 0.02866,-0.1761 -7.38e-4,-0.0129 -0.0012,-0.0258 -0.0022,-0.0387 -9.02e-4,-0.0114 -0.0073,-0.0709 -0.0083,-0.0817 -0.0043,-0.0457 -0.0085,-0.0913 -0.01387,-0.1369 -0.0049,-0.0557 -0.0111,-0.11131 -0.01637,-0.16701 -0.0071,-0.0751 -0.01358,-0.15032 -0.02456,-0.22501 -0.0097,-0.0731 -0.01288,-0.10182 -0.02535,-0.17508 -0.0204,-0.11981 -0.04825,-0.23842 -0.06188,-0.35934 -0.0073,-0.0714 -0.01281,-0.11179 -0.01486,-0.18363 -0.0017,-0.0581 -1.32e-4,-0.12211 0.007,-0.17993 0.009,-0.0725 0.01793,-0.0976 0.03614,-0.16755 0.0207,-0.0539 0.03162,-0.0904 0.06231,-0.13933 0.0853,-0.13591 0.233876,-0.17564 0.379414,-0.2612 0.0169,-0.01 0.03545,-0.0171 0.05417,-0.0229 0.01715,-0.005 0.03525,-0.007 0.05287,-0.0104 0.01558,2.1e-4 0.03126,-10e-4 0.04675,6.5e-4 z" /></g><g
       id="text6-5-7"
       transform="translate(23.883978,118.57327)"
       style="fill:#000000;fill-opacity:1;stroke:#ffffff;stroke-width:3;stroke-dasharray:none;stroke-opacity:1;paint-order:markers stroke fill"><path
         style="font-size:3.175px;font-family:'Franklin Gothic Heavy';-inkscape-font-specification:'Franklin Gothic Heavy, ';baseline-shift:baseline;display:inline;overflow:visible;opacity:1;fill:#000000;fill-opacity:1;stroke:#ffffff;stroke-width:3;stroke-dasharray:none;stroke-opacity:1;paint-order:markers stroke fill;enable-background:accumulate;stop-color:#000000;stop-opacity:1"
         d="m 64.712525,104.24716 6.03064,-1.08519 q 0.7596,2.55789 3.90674,2.55789 2.44946,0 2.44946,-1.3022 0,-0.68199 -0.5736,-1.05419 -0.5581,-0.388 -2.01538,-0.682 -5.56555,-1.0697 -7.14685,-2.790605 -1.5813,-1.7208 -1.5813,-4.0462 0,-2.9921 2.26343,-4.9765 2.27893,-1.9843 6.54224,-1.9843 6.46472,0 8.54211,5.1934 l -5.37951,1.6278 q -0.8372,-2.1239 -3.39515,-2.1239 -2.1239,0 -2.1239,1.3178 0,0.589 0.4806,0.915 0.480601,0.326 1.86035,0.62 3.79822,0.806 5.39502,1.4263 1.59681,0.62 2.66651,2.1239 1.0697,1.488205 1.0697,3.519105 0,3.20909 -2.60449,5.20899 -2.604489,1.9844 -6.836789,1.9844 -7.73597,0 -9.549811,-6.4492 z"
         id="path57-1" /></g><g
       id="g25-7-8-6"
       transform="matrix(10,0,0,10,-626.39071,-803.42806)"
       style="fill:#000000;fill-opacity:1;stroke:#ffffff;stroke-width:0;stroke-dasharray:none;stroke-opacity:1;paint-order:markers stroke fill"><path
         id="path2-23-3-2-1"
         style="display:inline;fill:#000000;fill-opacity:1;stroke:#ffffff;stroke-width:0;stroke-dasharray:none;stroke-opacity:1;paint-order:markers stroke fill"
         d="m 71.567429,100.29304 c 0.0075,-6e-5 0.01506,8e-5 0.02253,8.3e-4 -0.01521,-0.002 -0.0306,-3.6e-4 -0.04589,-5.7e-4 -0.01762,0.003 -0.03571,0.005 -0.05286,0.0104 0.01714,-0.005 0.03521,-0.007 0.05281,-0.0104 0.0078,1.1e-4 0.01561,-1.4e-4 0.02341,-2.1e-4 z m 0.02341,8.8e-4 c 0.04116,0.005 0.08573,0.0231 0.111208,0.057 0.0024,0.003 0.0034,0.007 0.0051,0.0111 l -0.351761,0.17901 c 5.9e-4,-0.002 0.0018,-0.004 0.0018,-0.006 -1.85e-4,-0.007 -0.0107,-0.0148 -0.01447,-0.0173 -0.0056,-0.004 -0.01086,-0.006 -0.01602,-0.009 0.009,-0.0153 0.01979,-0.0309 0.03519,-0.0499 0.01468,-0.0181 0.04899,-0.0499 0.04899,-0.0499 l 0.179886,-0.11539 c 1.7e-5,0 3.4e-5,-10e-6 5.1e-5,0 z" /><path
         id="path25-4-4-4"
         style="fill:#000000;fill-opacity:1;stroke:#ffffff;stroke-width:0;stroke-dasharray:none;stroke-opacity:1;paint-order:markers stroke fill"
         d="m 72.437026,100.04765 -1.900142,0.77762 1.026655,0.28696 0.05405,0.16408 c 0.0337,-0.0665 0.08634,-0.14145 0.168318,-0.21332 v -2.1e-4 c 0.163574,-0.14243 0.395164,-0.21053 0.687142,-0.21053 0.322002,0 0.57402,0.0986 0.743623,0.29094 l 0.0307,-0.31792 1.00211,-0.50281 z" /><g
         id="path24-9-5-2"
         style="opacity:1;fill:#000000;fill-opacity:1;stroke:#ffffff;stroke-width:0;stroke-dasharray:none;stroke-opacity:1;paint-order:markers stroke fill"
         transform="matrix(0.99984092,0.01783632,-0.43247032,0.90164817,0,0)"><path
           style="baseline-shift:baseline;display:none;overflow:visible;fill:#000000;fill-opacity:1;stroke:#ffffff;stroke-width:0;stroke-dasharray:none;stroke-opacity:1;paint-order:markers stroke fill;enable-background:accumulate;stop-color:#000000;stop-opacity:1"
           d="m 120.86879,109.87517 a 0.88910401,0.36802053 0 0 1 -0.88911,0.36802 0.88910401,0.36802053 0 0 1 -0.8891,-0.36802 0.88910401,0.36802053 0 0 1 0.8891,-0.36802 0.88910401,0.36802053 0 0 1 0.88911,0.36802 z"
           id="path30-5-5-3" /></g><path
         style="display:inline;fill:#b12c00;fill-opacity:1;stroke:#ffffff;stroke-width:0;stroke-dasharray:none;stroke-opacity:1;paint-order:markers stroke fill"
         id="path2-2-1-1-2"
         d="m 71.411925,100.40954 c 0,0 -0.03431,0.0318 -0.04899,0.0499 -0.04058,0.05 -0.04906,0.0767 -0.07689,0.13482 -0.0091,0.0268 -0.01983,0.0531 -0.02743,0.0803 -0.03136,0.11247 -0.03584,0.23606 -0.02777,0.35199 0.0021,0.03 0.0061,0.0599 0.0091,0.0898 0.01643,0.11972 0.03874,0.23853 0.0602,0.35743 0.01042,0.0577 0.02038,0.11554 0.03057,0.17332 0.02199,0.12565 0.05105,0.24987 0.07389,0.37535 0.01373,0.0843 0.02675,0.16873 0.03551,0.2537 0.0022,0.0593 0.0023,0.11905 -0.0069,0.17777 -0.0011,0.006 -0.0021,0.0118 -0.0032,0.0177 l -0.343173,0.16526 v 0 c 0.0017,-0.006 0.0034,-0.0124 0.0051,-0.0186 0.01746,-0.0587 0.03202,-0.11385 0.02866,-0.1761 -7.38e-4,-0.0129 -0.0012,-0.0258 -0.0022,-0.0387 -9.02e-4,-0.0114 -0.0073,-0.0709 -0.0083,-0.0817 -0.0043,-0.0457 -0.0085,-0.0913 -0.01387,-0.1369 -0.0049,-0.0557 -0.0111,-0.11131 -0.01637,-0.16701 -0.0071,-0.0751 -0.01358,-0.15032 -0.02456,-0.22501 -0.0097,-0.0731 -0.01288,-0.10182 -0.02535,-0.17508 -0.0204,-0.11981 -0.04825,-0.23842 -0.06188,-0.35934 -0.0073,-0.0714 -0.01281,-0.11179 -0.01486,-0.18363 -0.0017,-0.0581 -1.32e-4,-0.12211 0.007,-0.17993 0.009,-0.0725 0.01793,-0.0976 0.03614,-0.16755 0.0207,-0.0539 0.03162,-0.0904 0.06231,-0.13933 0.0853,-0.13591 0.233876,-0.17564 0.379414,-0.2612 0.0169,-0.01 0.03545,-0.0171 0.05417,-0.0229 0.01715,-0.005 0.03525,-0.007 0.05287,-0.0104 0.01558,2.1e-4 0.03126,-10e-4 0.04675,6.5e-4 z" /></g><g
       id="text6-5-7-2"
       transform="translate(23.845222,118.58045)"
       style="fill:#000000;fill-opacity:1;stroke:#ffffff;stroke-width:0;stroke-dasharray:none;stroke-opacity:1;paint-order:markers stroke fill"><path
         style="font-size:3.175px;font-family:'Franklin Gothic Heavy';-inkscape-font-specification:'Franklin Gothic Heavy, ';baseline-shift:baseline;display:inline;overflow:visible;opacity:1;fill:#000000;fill-opacity:1;stroke:#ffffff;stroke-width:0;stroke-dasharray:none;stroke-opacity:1;paint-order:markers stroke fill;enable-background:accumulate;stop-color:#000000;stop-opacity:1"
         d="m 64.712525,104.24716 6.03064,-1.08519 q 0.7596,2.55789 3.90674,2.55789 2.44946,0 2.44946,-1.3022 0,-0.68199 -0.5736,-1.05419 -0.5581,-0.388 -2.01538,-0.682 -5.56555,-1.0697 -7.14685,-2.790605 -1.5813,-1.7208 -1.5813,-4.0462 0,-2.9921 2.26343,-4.9765 2.27893,-1.9843 6.54224,-1.9843 6.46472,0 8.54211,5.1934 l -5.37951,1.6278 q -0.8372,-2.1239 -3.39515,-2.1239 -2.1239,0 -2.1239,1.3178 0,0.589 0.4806,0.915 0.480601,0.326 1.86035,0.62 3.79822,0.806 5.39502,1.4263 1.59681,0.62 2.66651,2.1239 1.0697,1.488205 1.0697,3.519105 0,3.20909 -2.60449,5.20899 -2.604489,1.9844 -6.836789,1.9844 -7.73597,0 -9.549811,-6.4492 z"
         id="path57-1-1" /></g></g></svg>
